<svg viewBox="0 0 1059 1056" width="1059" height="1056" xmlns="http://www.w3.org/2000/svg" xmlns:xlink="http://www.w3.org/1999/xlink" xmlns:ev="http://www.w3.org/2001/xml-events"><style type="text/css"><![CDATA[
.st1 {fill:#454545;font-family:Arial;font-size:10pt;font-weight:bold}
.st5 {fill:#454545;font-family:Arial;font-size:10pt}
.st3 {fill:#454545;font-family:Arial;font-size:14pt}
.st2 {fill:#454545;font-family:Montserrat ExtraBold;font-size:26pt}
.st4 {fill:#ffffff;font-family:Arial;font-size:10pt;font-weight:bold}
.st6 {font-family:Sans Serif;font-size:9pt}
]]></style><defs><linearGradient x2="193" y2="203" gradientUnits="userSpaceOnUse" id="lg1" y1="5" x1="-5"><stop stop-color="#f6d3aa" offset="0"/><stop stop-color="#f6d3aa" offset="0.1"/><stop stop-color="#f3c17c" offset="0.1"/><stop stop-color="#f3c17c" offset="0.2"/><stop stop-color="#f6d3aa" offset="0.2"/><stop stop-color="#f6d3aa" offset="1"/></linearGradient><linearGradient x2="288" y2="467" gradientUnits="userSpaceOnUse" id="lg2" y1="90" x1="-90"><stop stop-color="#b6d7e2" offset="0"/><stop stop-color="#b6d7e2" offset="0.1"/><stop stop-color="#cce2ea" offset="0.1"/><stop stop-color="#cce2ea" offset="0.2"/><stop stop-color="#b6d7e2" offset="0.2"/><stop stop-color="#b6d7e2" offset="1"/></linearGradient><linearGradient x2="374" y2="294" gradientUnits="userSpaceOnUse" id="lg3" y1="-40" x1="40"><stop stop-color="#bad8ba" offset="0"/><stop stop-color="#bad8ba" offset="0.1"/><stop stop-color="#cee2ce" offset="0.1"/><stop stop-color="#cee2ce" offset="0.2"/><stop stop-color="#bad8ba" offset="0.2"/><stop stop-color="#bad8ba" offset="1"/></linearGradient><linearGradient x2="0%" y2="100%" id="lg4" y1="0%" x1="0%"><stop stop-color="#d99c00" offset="0"/><stop stop-color="#f0ad00" offset="0.65"/><stop stop-color="#bf8900" offset="1"/></linearGradient><linearGradient x2="0%" y2="100%" id="lg5" y1="0%" x1="0%"><stop stop-color="#e98591" offset="0"/><stop stop-color="#dc6777" offset="1"/></linearGradient><linearGradient x2="83" y2="53" gradientUnits="userSpaceOnUse" id="lg6" y1="-19" x1="11"><stop stop-color="#f0babf" offset="0"/><stop stop-color="#f0babf" offset="0.1"/><stop stop-color="#f4ced2" offset="0.1"/><stop stop-color="#f4ced2" offset="0.2"/><stop stop-color="#f0babf" offset="0.2"/><stop stop-color="#f0babf" offset="1"/></linearGradient><linearGradient x2="84" y2="55" gradientUnits="userSpaceOnUse" id="lg7" y1="-19" x1="10"><stop stop-color="#f0babf" offset="0"/><stop stop-color="#f0babf" offset="0.1"/><stop stop-color="#f4ced2" offset="0.1"/><stop stop-color="#f4ced2" offset="0.2"/><stop stop-color="#f0babf" offset="0.2"/><stop stop-color="#f0babf" offset="1"/></linearGradient><linearGradient x2="83" y2="52" gradientUnits="userSpaceOnUse" id="lg8" y1="-19" x1="11"><stop stop-color="#f0babf" offset="0"/><stop stop-color="#f0babf" offset="0.1"/><stop stop-color="#f4ced2" offset="0.1"/><stop stop-color="#f4ced2" offset="0.2"/><stop stop-color="#f0babf" offset="0.2"/><stop stop-color="#f0babf" offset="1"/></linearGradient><linearGradient x2="0%" y2="100%" id="lg9" y1="0%" x1="0%"><stop stop-color="#fbede9" offset="0"/><stop stop-color="#e88651" offset="0.05"/><stop stop-color="#e88651" offset="0.95"/><stop stop-color="#fbede9" offset="1"/></linearGradient><linearGradient x2="7" y2="41" gradientUnits="userSpaceOnUse" id="lg10" y1="-7" x1="54"><stop stop-color="#60b5cc" offset="0"/><stop stop-color="#60b5cc" offset="0.1"/><stop stop-color="#93c7d7" offset="0.1"/><stop stop-color="#93c7d7" offset="0.2"/><stop stop-color="#60b5cc" offset="0.2"/><stop stop-color="#60b5cc" offset="1"/></linearGradient><linearGradient x2="14" y2="52" gradientUnits="userSpaceOnUse" id="lg11" y1="-14" x1="80"><stop stop-color="#6bb76d" offset="0"/><stop stop-color="#6bb76d" offset="0.1"/><stop stop-color="#99c89a" offset="0.1"/><stop stop-color="#99c89a" offset="0.2"/><stop stop-color="#6bb76d" offset="0.2"/><stop stop-color="#6bb76d" offset="1"/></linearGradient><linearGradient x2="5" y2="78" gradientUnits="userSpaceOnUse" id="lg12" y1="-5" x1="89"><stop stop-color="#60b5cc" offset="0"/><stop stop-color="#60b5cc" offset="0.1"/><stop stop-color="#93c7d7" offset="0.1"/><stop stop-color="#93c7d7" offset="0.2"/><stop stop-color="#60b5cc" offset="0.2"/><stop stop-color="#60b5cc" offset="1"/></linearGradient><linearGradient x2="17" y2="60" gradientUnits="userSpaceOnUse" id="lg13" y1="-17" x1="94"><stop stop-color="#6bb76d" offset="0"/><stop stop-color="#6bb76d" offset="0.1"/><stop stop-color="#99c89a" offset="0.1"/><stop stop-color="#99c89a" offset="0.2"/><stop stop-color="#6bb76d" offset="0.2"/><stop stop-color="#6bb76d" offset="1"/></linearGradient><linearGradient x2="20" y2="62" gradientUnits="userSpaceOnUse" id="lg14" y1="-20" x1="101"><stop stop-color="#6bb76d" offset="0"/><stop stop-color="#6bb76d" offset="0.1"/><stop stop-color="#99c89a" offset="0.1"/><stop stop-color="#99c89a" offset="0.2"/><stop stop-color="#6bb76d" offset="0.2"/><stop stop-color="#6bb76d" offset="1"/></linearGradient><linearGradient x2="0%" y2="100%" id="lg15" y1="0%" x1="0%"><stop stop-color="#eaeaec" offset="0"/><stop stop-color="#5a6378" offset="0.05"/><stop stop-color="#5a6378" offset="0.95"/><stop stop-color="#eaeaec" offset="1"/></linearGradient><linearGradient x2="9" y2="67" gradientUnits="userSpaceOnUse" id="lg16" y1="-9" x1="85"><stop stop-color="#6bb76d" offset="0"/><stop stop-color="#6bb76d" offset="0.1"/><stop stop-color="#99c89a" offset="0.1"/><stop stop-color="#99c89a" offset="0.2"/><stop stop-color="#6bb76d" offset="0.2"/><stop stop-color="#6bb76d" offset="1"/></linearGradient><linearGradient x2="10" y2="83" gradientUnits="userSpaceOnUse" id="lg17" y1="-10" x1="104"><stop stop-color="#6bb76d" offset="0"/><stop stop-color="#6bb76d" offset="0.1"/><stop stop-color="#99c89a" offset="0.1"/><stop stop-color="#99c89a" offset="0.2"/><stop stop-color="#6bb76d" offset="0.2"/><stop stop-color="#6bb76d" offset="1"/></linearGradient><linearGradient x2="8" y2="96" gradientUnits="userSpaceOnUse" id="lg18" y1="-8" x1="111"><stop stop-color="#6bb76d" offset="0"/><stop stop-color="#6bb76d" offset="0.1"/><stop stop-color="#99c89a" offset="0.1"/><stop stop-color="#99c89a" offset="0.2"/><stop stop-color="#6bb76d" offset="0.2"/><stop stop-color="#6bb76d" offset="1"/></linearGradient><linearGradient x2="11" y2="114" gradientUnits="userSpaceOnUse" id="lg19" y1="-11" x1="135"><stop stop-color="#6bb76d" offset="0"/><stop stop-color="#6bb76d" offset="0.1"/><stop stop-color="#99c89a" offset="0.1"/><stop stop-color="#99c89a" offset="0.2"/><stop stop-color="#6bb76d" offset="0.2"/><stop stop-color="#6bb76d" offset="1"/></linearGradient></defs><g id="page1" transform="translate(5,5)"><rect stroke="#808080" x="0" width="1049" fill="#ffffff" y="0" height="1046"/><g transform="translate(759.49,762.19)"><g id="shape1"><path stroke="#ae3e3d" d="M0,9.4C0,4.2,4.2,0,9.4,0L178.6,0C183.8,0,188,4.2,188,9.4L188,38L0,38L0,9.4z" fill="#ffffff" stroke-dasharray="2.5,2.5"/><text class="st1"><tspan x="57" y="22.5">Return Data</tspan></text></g><path stroke="#f0ad00" d="M0,0L188,0L188,197.6C188,203.3,183.3,208,177.6,208L10.4,208C4.7,208,0,203.3,0,197.6L0,0z" fill="url(#lg1)" id="shape2" transform="translate(0,38)"/></g><g transform="translate(754,122)"><g id="shape3"><path stroke="#ae3e3d" d="M0,9.9C0,4.4,4.4,0,9.9,0L188.1,0C193.6,0,198,4.4,198,9.9L198,38L0,38L0,9.9z" fill="#ffffff" stroke-dasharray="2.5,2.5"/><text class="st1"><tspan x="59" y="22.5">Process SQL</tspan></text></g><path stroke="#60b5cc" d="M0,0L198,0L198,528.2C198,543.6,185.6,556,170.2,556L27.8,556C12.4,556,0,543.6,0,528.2L0,0z" fill="url(#lg2)" id="shape4" transform="translate(0,38)"/></g><g transform="translate(131,610.71)"><g id="shape5"><path stroke="#000000" d="M0,20.7C0,9.3,9.3,0,20.7,0L394.1,0C405.6,0,414.9,9.3,414.9,20.7L414.9,38L0,38L0,20.7z" fill="#ffffff" stroke-dasharray="2.5,2.5"/><text class="st1"><tspan x="103.4" y="22.5">Decode Input, Map to SQL Syntax</tspan></text></g><path stroke="#000000" d="M0,0L414.9,0L414.9,232.5C414.9,244,405.6,253.3,394.1,253.3L20.7,253.3C9.3,253.3,0,244,0,232.5L0,0z" fill="url(#lg3)" id="shape6" transform="translate(0,38)"/></g><g transform="translate(83.6,122)"><g id="shape7"><path stroke="url(#lg4)" d="M0,28.4C0,12.7,12.7,0,28.4,0L540.4,0C556.1,0,568.8,12.7,568.8,28.4L568.8,38L0,38L0,28.4z" fill="#ffffff" stroke-dasharray="2.5,2.5"/><text class="st1"><tspan x="133.4" y="22.5">Load Configuration, Table, DB , and ACL Schema</tspan></text></g><g id="shape8" transform="translate(0,39.01)"><path d="M2,2L569.2,2L569.2,334C569.2,349.7,556.5,362.4,540.9,362.4L30.4,362.4C14.7,362.4,2,349.7,2,334L2,2z" fill="#000000" fill-opacity="0.2"/><path stroke="url(#lg4)" d="M0,0L567.2,0L567.2,332C567.2,347.7,554.5,360.4,538.9,360.4L28.4,360.4C12.7,360.4,0,347.7,0,332L0,0z" fill="url(#lg5)"/></g></g><g id="shape9" transform="translate(53,43)"><text class="st2"><tspan x="11" y="32.5">ddb</tspan></text></g><g id="shape10" transform="translate(131,56)"><text class="st3"><tspan x="13" y="17.5">Internal work flow</tspan></text></g><g transform="translate(150,241)"><path stroke="#404756" d="M-8.5,34L85.5,34L102.5,0L8.5,0L-8.5,34z" fill="url(#lg6)" id="shape11" stroke-width="4.33333"/><text class="st1"><tspan x="31" y="20.5">None</tspan></text></g><g transform="translate(321,327.5)"><path stroke="#404756" d="M-9.1,36.5L84.9,36.5L103.1,0L9.1,0L-9.1,36.5z" fill="url(#lg7)" id="shape12" stroke-width="4.33333"/><text class="st1"><tspan x="13" y="21.8">Config File</tspan></text></g><g transform="translate(456,242)"><path stroke="#404756" d="M-8.3,33L85.8,33L102.3,0L8.3,0L-8.3,33z" fill="url(#lg8)" id="shape13" stroke-width="4.33333"/><text class="st1"><tspan x="30" y="20">False</tspan></text></g><g transform="translate(131,309.25)"><path stroke="#404756" d="M66,84.8L132,42.4L66,0L0,42.4L66,84.8z" fill="url(#lg9)" id="shape14" stroke-width="4.33333"/><text class="st4"><tspan x="21" y="38.4">Is there a local  </tspan><tspan x="20" y="53.4">user config file</tspan></text></g><g transform="translate(316,227)"><path stroke="#404756" d="M52,62L104,31L52,0L0,31L52,62z" fill="url(#lg9)" id="shape15" stroke-width="4.33333"/><text class="st4"><tspan x="10" y="34.5">Check Config</tspan></text></g><g transform="translate(337.5,179)"><path stroke="#404756" d="M15.3,34L45.8,34C54.2,34,61,27.2,61,17C61,6.8,54.2,0,45.8,0L15.3,0C6.8,0,0,6.8,0,17C0,27.2,6.8,34,15.3,34z" fill="url(#lg10)" id="shape16" stroke-width="4.33333"/><text class="st4"><tspan x="18" y="20.5">INIT</tspan></text></g><g transform="translate(321,398)"><path stroke="#404756" d="M94,38L94,0L0,0L0,38L94,38z" fill="url(#lg11)" id="shape17" stroke-width="4.33333"/><text class="st4"><tspan x="9" y="22.5">Load Config</tspan></text></g><g transform="translate(805.76,919)"><path stroke="#404756" d="M23.5,73L70.5,73C83.5,73,94,62.5,94,36.5C94,10.5,83.5,0,70.5,0L23.5,0C10.5,0,0,10.5,0,36.5C0,62.5,10.5,73,23.5,73z" fill="url(#lg12)" id="shape18" stroke-width="4.33333"/><text class="st4"><tspan x="18" y="25">Return or </tspan><tspan x="24" y="40">Display </tspan><tspan x="26" y="55">Output</tspan></text></g><g id="shape19" transform="translate(263,351.63)"><path stroke="#404756" d="M0,0L14.9,0C16,0,16.9,-0.9,16.9,-2L16.9,-3.9C16.9,-5,17.8,-5.9,18.9,-5.9L48.9,-5.9" fill="none" stroke-width="4.33333"/><path stroke="#404756" d="M58,-5.9L47.2,-12.1C48.2,-10.3,48.9,-8.2,48.9,-5.9C48.9,-3.6,48.2,-1.5,47.2,.4L58,-5.9" stroke-linecap="round" fill="#404756" stroke-width="1"/><rect x="6.4" width="21.5" fill="#ffffff" y="-10.6" height="15"/><text class="st5"><tspan x="6.3" y="0.4">Yes</tspan></text></g><g id="shape20" transform="translate(197,275)"><path stroke="#404756" d="M0,0L0,25.1" fill="none" stroke-width="4.33333"/><path stroke="#404756" d="M0,34.3L6.2,23.4C4.4,24.5,2.3,25.1,0,25.1C-2.3,25.1,-4.4,24.5,-6.2,23.4L0,34.3" stroke-linecap="round" fill="#404756" stroke-width="1"/></g><g id="shape21" transform="translate(197,394)"><path stroke="#404756" d="M0,0L0,57C0,77.4,16.6,94,37,94L155,94C163.8,94,171,101.2,171,110L171,118.2" fill="none" stroke-width="4.33333"/><path stroke="#404756" d="M171,127.4L177.2,116.6C175.4,117.6,173.3,118.2,171,118.2C168.7,118.2,166.6,117.6,164.8,116.6L171,127.4" stroke-linecap="round" fill="#404756" stroke-width="1"/><rect x="-8.2" width="16.4" fill="#ffffff" y="12.5" height="15"/><text class="st5"><tspan x="-8.3" y="23.5">No</tspan></text></g><g id="shape22" transform="translate(316,258)"><path stroke="#404756" d="M0,0L-62.9,0" fill="none" stroke-width="4.33333"/><path stroke="#404756" d="M-72,0L-61.2,6.2C-62.2,4.4,-62.9,2.3,-62.9,0C-62.9,-2.3,-62.2,-4.4,-61.2,-6.2L-72,0" stroke-linecap="round" fill="#404756" stroke-width="1"/></g><g id="shape23" transform="translate(420,258)"><path stroke="#404756" d="M0,0L6.8,0C9.5,0,14,0,16.7,.1L26.9,.3" fill="none" stroke-width="4.33333"/><path stroke="#404756" d="M36,.5L25.3,-6C26.3,-4.1,26.9,-2,26.9,.3C26.8,2.6,26.2,4.7,25.1,6.5L36,.5" stroke-linecap="round" fill="#404756" stroke-width="1"/></g><g id="shape24" transform="translate(368,289)"><path stroke="#404756" d="M0,0L0,29.4" fill="none" stroke-width="4.33333"/><path stroke="#404756" d="M0,38.5L6.2,27.7C4.4,28.7,2.3,29.4,0,29.4C-2.3,29.4,-4.4,28.7,-6.2,27.7L0,38.5" stroke-linecap="round" fill="#404756" stroke-width="1"/></g><g id="shape25" transform="translate(368,364)"><path stroke="#404756" d="M0,0L0,24.9" fill="none" stroke-width="4.33333"/><path stroke="#404756" d="M0,34L6.2,23.2C4.4,24.2,2.3,24.9,0,24.9C-2.3,24.9,-4.4,24.2,-6.2,23.2L0,34" stroke-linecap="round" fill="#404756" stroke-width="1"/></g><g id="shape26" transform="translate(368,436)"><path stroke="#404756" d="M0,0L0,76.2" fill="none" stroke-width="4.33333"/><path stroke="#404756" d="M0,85.4L6.2,74.6C4.4,75.6,2.3,76.2,0,76.2C-2.3,76.2,-4.4,75.6,-6.2,74.6L0,85.4" stroke-linecap="round" fill="#404756" stroke-width="1"/></g><g id="shape27" transform="translate(503,275)"><path stroke="#404756" d="M0,0L0,176C0,196.4,-16.6,213,-37,213L-119,213C-127.8,213,-135,220.2,-135,229L-135,237.2" fill="none" stroke-width="4.33333"/><path stroke="#404756" d="M-135,246.4L-128.8,235.6C-130.6,236.6,-132.7,237.2,-135,237.2C-137.3,237.2,-139.4,236.6,-141.2,235.6L-135,246.4" stroke-linecap="round" fill="#404756" stroke-width="1"/></g><g id="shape28" transform="translate(368,213)"><path stroke="#404756" d="M0,0L0,4.9" fill="none" stroke-width="4.33333"/><path stroke="#404756" d="M0,14L6.2,3.2C4.4,4.2,2.3,4.9,0,4.9C-2.3,4.9,-4.4,4.2,-6.2,3.2L0,14" stroke-linecap="round" fill="#404756" stroke-width="1"/></g><g transform="translate(169.4,674.85)"><path stroke="#404756" d="M112,42L112,0L0,0L0,42L112,42z" fill="url(#lg13)" id="shape29" stroke-width="4.33333"/><text class="st4"><tspan x="16" y="24.5">Split Queries</tspan></text></g><g transform="translate(368.4,674.85)"><path stroke="#404756" d="M121,42L121,0L0,0L0,42L121,42z" fill="url(#lg14)" id="shape30" stroke-width="4.33333"/><text class="st4"><tspan x="28" y="24.5">SQL Lexer</tspan></text></g><g id="shape31" transform="translate(166.4,762.19)"><path d="M0,57.2C0,25.6,26.8,0,59.8,0C92.7,0,119.5,25.6,119.5,57.2C119.5,88.7,92.7,114.3,59.8,114.3C26.8,114.3,0,88.7,0,57.2zM59.8,114.3C26.8,114.3,0,88.7,0,57.2" fill="url(#lg15)"/><path stroke="#404756" d="M0,57.2C0,25.6,26.8,0,59.8,0M59.8,0C92.7,0,119.5,25.6,119.5,57.2M119.5,57.2C119.5,88.7,92.7,114.3,59.8,114.3M59.8,114.3C26.8,114.3,0,88.7,0,57.2" fill="none" stroke-width="4.33333"/><text class="st4"><tspan x="18.3" y="53.2">Loop Queries </tspan><tspan x="18.3" y="68.2">for Validation</tspan></text></g><g id="shape32" transform="translate(791.24,178)"><path d="M0,58.4C0,26.1,27.3,0,61,0C94.7,0,122,26.1,122,58.4C122,90.6,94.7,116.8,61,116.8C27.3,116.8,0,90.6,0,58.4zM61,116.8C27.3,116.8,0,90.6,0,58.4" fill="url(#lg15)"/><path stroke="#ffffff" d="M0,58.4C0,26.1,27.3,0,61,0M61,0C94.7,0,122,26.1,122,58.4M122,58.4C122,90.6,94.7,116.8,61,116.8M61,116.8C27.3,116.8,0,90.6,0,58.4" fill="none" stroke-width="4.33333"/><text class="st4"><tspan x="18.5" y="54.4" class="st6">Loop</tspan><tspan> Queries </tspan><tspan x="19.5" y="69.4">for Execution</tspan></text></g><g transform="translate(805.26,322.63)"><path stroke="#404756" d="M94,58L94,0L0,0L0,58L94,58z" fill="url(#lg16)" id="shape33" stroke-width="4.33333"/><text class="st4"><tspan x="17" y="25">Init Query </tspan><tspan x="31" y="40">State</tspan></text></g><g transform="translate(805.74,407.5)"><path stroke="#404756" d="M94,58L94,0L0,0L0,58L94,58z" fill="url(#lg16)" id="shape34" stroke-width="4.33333"/><text class="st4"><tspan x="22" y="25">Execute </tspan><tspan x="15" y="40">Command</tspan></text></g><g transform="translate(795.76,824)"><path stroke="#404756" d="M114,73L114,0L0,0L0,73L114,73z" fill="url(#lg17)" id="shape35" stroke-width="4.33333"/><text class="st4"><tspan x="17" y="25">Process Last </tspan><tspan x="25" y="40">Command </tspan><tspan x="36" y="55">Output</tspan></text></g><g transform="translate(806.26,487.38)"><path stroke="#404756" d="M47,56L94,28L47,0L0,28L47,56z" fill="url(#lg9)" id="shape36" stroke-width="4.33333"/><text class="st4"><tspan x="19" y="31.5">Commit?</tspan></text></g><g transform="translate(793.76,586.5)"><path stroke="#404756" d="M119,88L119,0L0,0L0,88L119,88z" fill="url(#lg18)" id="shape37" stroke-width="4.33333"/><text class="st4"><tspan x="15" y="17.5">Update Master </tspan><tspan x="32" y="32.5">Data File</tspan><tspan x="55" y="47.5">&amp;</tspan><tspan x="16" y="62.5">Reset Commit </tspan><tspan x="46" y="77.5">Flag</tspan></text></g><g id="shape38" transform="translate(852.76,897)"><path stroke="#404756" d="M0,0L0,12.9" fill="none" stroke-width="4.33333"/><path stroke="#404756" d="M0,22L6.2,11.2C4.4,12.2,2.3,12.9,0,12.9C-2.3,12.9,-4.4,12.2,-6.2,11.2L0,22" stroke-linecap="round" fill="#404756" stroke-width="1"/></g><g id="shape39" transform="translate(225.4,716.85)"><path stroke="#404756" d="M0,0L0,7.3C0,10.6,.1,16,.1,19.3L.5,36.2" fill="none" stroke-width="4.33333"/><path stroke="#404756" d="M.8,45.3L6.7,34.4C4.9,35.5,2.8,36.1,.5,36.2C-1.7,36.2,-3.9,35.7,-5.7,34.7L.8,45.3" stroke-linecap="round" fill="#404756" stroke-width="1"/></g><g id="shape40" transform="translate(285.9,819.35)"><path stroke="#404756" d="M0,0L19,0C29.5,0,38,-8.5,38,-19L38,-101.5C38,-113.6,47.9,-123.5,60,-123.5L73.4,-123.5" fill="none" stroke-width="4.33333"/><path stroke="#404756" d="M82.5,-123.5L71.7,-129.7C72.7,-127.9,73.4,-125.8,73.4,-123.5C73.4,-121.2,72.7,-119.1,71.7,-117.3L82.5,-123.5" stroke-linecap="round" fill="#404756" stroke-width="1"/></g><g id="shape41" transform="translate(428.9,716.85)"><path stroke="#404756" d="M0,0L0,56.9" fill="none" stroke-width="4.33333"/><path stroke="#404756" d="M0,66L6.2,55.2C4.4,56.2,2.3,56.9,0,56.9C-2.3,56.9,-4.4,56.2,-6.2,55.2L0,66" stroke-linecap="round" fill="#404756" stroke-width="1"/></g><g transform="translate(355.9,782.85)"><path stroke="#404756" d="M146,102.8L146,0L0,0L0,102.8L146,102.8z" fill="url(#lg19)" id="shape42" stroke-width="4.33333"/><text class="st4"><tspan x="25" y="32.4">Validate Syntax </tspan><tspan x="68" y="47.4">&amp; </tspan><tspan x="9" y="62.4">Convert to SQL CMD </tspan><tspan x="28" y="77.4">Class of (type)</tspan></text></g><g id="shape43" transform="translate(852.26,380.63)"><path stroke="#404756" d="M0,0L0,5.9C0,8.6,.1,13.1,.2,15.9L.2,17.7" fill="none" stroke-width="4.33333"/><path stroke="#404756" d="M.5,26.9L6.4,15.9C4.6,17,2.5,17.7,.2,17.7C-2.1,17.8,-4.2,17.3,-6.1,16.3L.5,26.9" stroke-linecap="round" fill="#404756" stroke-width="1"/></g><g id="shape44" transform="translate(852.74,465.5)"><path stroke="#404756" d="M0,0L0,9.9C0,12.1,.1,15.7,.3,17.9" fill="none" stroke-width="4.33333"/><path stroke="#404756" d="M.5,21.9L6.1,10.7C4.3,11.9,2.2,12.6,-0.1,12.8C-2.3,12.9,-4.5,12.4,-6.4,11.5L.5,21.9" stroke-linecap="round" fill="#404756" stroke-width="1"/></g><g id="shape45" transform="translate(853.26,543.38)"><path stroke="#404756" d="M0,0L0,34" fill="none" stroke-width="4.33333"/><path stroke="#404756" d="M0,43.1L6.2,32.3C4.4,33.4,2.3,34,0,34C-2.3,34,-4.4,33.4,-6.2,32.3L0,43.1" stroke-linecap="round" fill="#404756" stroke-width="1"/><rect x="-10.5" width="21.5" fill="#ffffff" y="12.5" height="15"/><text class="st5"><tspan x="-10.6" y="23.5">Yes</tspan></text></g><g id="shape46" transform="translate(368,521.38)"><path stroke="#404756" d="M0,0L0,43.6C0,47.5,-3.1,50.6,-7,50.6L-271,50.6C-274.9,50.6,-278,53.8,-278,57.6L-278,228C-278,231.8,-274.9,235,-271,235L-246.8,235" fill="none" stroke-width="5"/><path stroke="#404756" d="M-237,235L-248.6,228.3C-247.5,230.2,-246.8,232.5,-246.8,235C-246.8,237.4,-247.5,239.7,-248.6,241.7L-237,235" stroke-linecap="round" fill="#404756" stroke-width="1"/></g><g id="shape47" transform="translate(501.9,834.27)"><path stroke="#404756" d="M0,0L13.5,0C17.4,0,20.5,-3.1,20.5,-7L20.5,-70.9C20.5,-74.8,23.6,-77.9,27.5,-77.9L34.1,-77.9" fill="none" stroke-width="5"/><path stroke="#404756" d="M44,-77.9L32.3,-84.6C33.5,-82.7,34.1,-80.4,34.1,-77.9C34.1,-75.5,33.5,-73.2,32.3,-71.2L44,-77.9" stroke-linecap="round" fill="#404756" stroke-width="1"/></g><g id="shape48" transform="translate(545.87,756.35)"><path stroke="#404756" d="M0,0L147.5,0C155.8,0,162.5,-6.7,162.5,-15L162.5,-322.4C162.5,-330.6,169.3,-337.4,177.5,-337.4L198.3,-337.4" fill="none" stroke-width="5"/><path stroke="#404756" d="M208.1,-337.4L196.5,-344.1C197.7,-342.1,198.3,-339.8,198.3,-337.4C198.3,-334.9,197.7,-332.6,196.5,-330.6L208.1,-337.4" stroke-linecap="round" fill="#404756" stroke-width="1"/></g><g id="shape49" transform="translate(131,756.35)"><path stroke="#404756" d="M0,0L8.4,0C12.3,0,15.4,-3.1,15.4,-7L15.4,-53.5C15.4,-57.4,18.5,-60.5,22.4,-60.5L28.6,-60.5" fill="none" stroke-width="5"/><path stroke="#404756" d="M38.4,-60.5L26.8,-67.2C27.9,-65.2,28.6,-62.9,28.6,-60.5C28.6,-58.1,27.9,-55.8,26.8,-53.8L38.4,-60.5" stroke-linecap="round" fill="#404756" stroke-width="1"/></g><g id="shape50" transform="translate(754,419)"><path stroke="#404756" d="M0,0L11,0C14.9,0,18,-3.1,18,-7L18,-175.6C18,-179.5,21.1,-182.6,25,-182.6L27.4,-182.6" fill="none" stroke-width="5"/><path stroke="#404756" d="M37.2,-182.6L25.6,-189.3C26.8,-187.4,27.4,-185.1,27.4,-182.6C27.4,-180.2,26.8,-177.9,25.6,-175.9L37.2,-182.6" stroke-linecap="round" fill="#404756" stroke-width="1"/></g><g id="shape51" transform="translate(853,716)"><path stroke="#404756" d="M0,0L0,7.2C0,11.1,0,17.3,.1,21.2L.3,36.4" fill="none" stroke-width="5"/><path stroke="#404756" d="M.5,46.2L7,34.5C5.1,35.6,2.8,36.3,.3,36.4C-2.1,36.4,-4.4,35.8,-6.4,34.7L.5,46.2" stroke-linecap="round" fill="#404756" stroke-width="1"/></g><g id="shape52" transform="translate(853.26,674.5)"><path stroke="#404756" d="M0,0L0,8.5C0,12.4,-0,18.6,-0.1,22.5L-0.2,31.7" fill="none" stroke-width="5"/><path stroke="#404756" d="M-0.3,41.5L6.6,29.9C4.6,31.1,2.3,31.7,-0.2,31.7C-2.6,31.7,-4.9,31,-6.8,29.8L-0.3,41.5" stroke-linecap="round" fill="#404756" stroke-width="1"/></g><g id="shape53" transform="translate(852.26,294.75)"><path stroke="#404756" d="M0,0L0,18.1" fill="none" stroke-width="5"/><path stroke="#404756" d="M0,27.9L6.7,16.3C4.7,17.4,2.4,18.1,0,18.1C-2.4,18.1,-4.7,17.4,-6.7,16.3L0,27.9" stroke-linecap="round" fill="#404756" stroke-width="1"/></g></g></svg>